<?xml version="1.0" standalone="no"?>
<!DOCTYPE svg PUBLIC "-//W3C//DTD SVG 20010904//EN"
 "http://www.w3.org/TR/2001/REC-SVG-20010904/DTD/svg10.dtd">
<svg version="1.0" xmlns="http://www.w3.org/2000/svg"
 width="16.000000pt" height="16.000000pt" viewBox="0 0 16.000000 16.000000"
 preserveAspectRatio="xMidYMid meet">
<metadata>
Created by potrace 1.11, written by Peter Selinger 2001-2013
</metadata>
<g transform="translate(0.000000,16.000000) scale(0.000800,-0.000800)"
fill="#000000" stroke="none">
<path d="M9689 19996 c-2 -2 -49 -6 -104 -10 -150 -10 -260 -20 -329 -31 -11
-2 -43 -6 -71 -10 -27 -3 -77 -10 -110 -15 -33 -5 -73 -12 -90 -14 -59 -8
-337 -66 -418 -87 -45 -11 -90 -22 -99 -24 -27 -6 -168 -45 -233 -65 -199 -62
-262 -82 -280 -90 -11 -4 -56 -21 -100 -36 -270 -93 -626 -257 -920 -423 -213
-121 -554 -354 -724 -496 -258 -214 -556 -506 -711 -695 -25 -30 -47 -57 -50
-60 -21 -20 -191 -236 -240 -306 -340 -485 -548 -885 -700 -1344 -41 -124 -93
-299 -105 -358 -2 -9 -10 -46 -19 -82 -8 -36 -18 -80 -21 -99 -3 -19 -7 -37
-9 -40 -2 -3 -7 -26 -10 -51 -3 -25 -8 -54 -10 -65 -14 -77 -30 -197 -41 -315
-3 -36 -8 -83 -10 -105 -17 -173 -27 -2153 -11 -2203 7 -19 13 -22 44 -18 20
3 114 35 207 71 94 36 177 68 185 70 8 2 40 13 70 25 30 12 60 22 65 24 13 2
164 56 190 66 21 9 380 126 505 165 182 56 484 142 565 160 6 2 30 8 55 16 25
7 50 13 55 15 6 1 39 10 75 19 36 9 72 18 80 20 8 2 35 8 60 14 25 7 55 14 66
16 12 3 82 19 155 35 73 17 147 33 163 36 17 3 60 11 96 19 36 8 78 17 93 19
49 8 82 43 108 112 13 36 15 117 17 526 1 266 4 493 6 504 3 12 7 61 11 110 3
48 8 90 10 94 2 3 6 26 10 50 10 71 15 102 26 150 6 25 12 52 14 61 17 83 78
262 128 379 68 157 122 255 221 399 129 189 323 394 526 560 36 29 74 60 85
69 165 134 496 330 700 414 193 79 392 137 595 173 203 36 467 48 695 31 96
-7 118 -9 203 -21 20 -4 55 -8 77 -11 81 -11 354 -77 495 -121 797 -246 1366
-704 1673 -1347 133 -276 223 -617 252 -956 3 -36 8 -92 11 -125 3 -33 7 -256
9 -495 4 -492 5 -500 73 -537 32 -18 141 -52 213 -67 13 -3 67 -16 119 -30 95
-25 472 -124 500 -131 8 -3 49 -14 90 -25 41 -12 84 -23 95 -25 11 -2 79 -20
150 -40 72 -20 171 -47 220 -60 93 -24 448 -123 545 -151 151 -43 414 -131
465 -155 39 -17 364 -139 373 -139 20 0 22 103 22 867 0 1183 -8 1417 -55
1713 -2 14 -9 57 -15 95 -6 39 -15 88 -20 110 -5 22 -12 56 -15 75 -12 68 -86
347 -119 450 -117 356 -258 666 -449 985 -75 125 -225 351 -243 366 -8 6 -14
16 -14 22 0 6 -7 17 -15 26 -8 9 -41 50 -72 91 -65 84 -58 76 -179 220 -114
137 -161 187 -324 350 -190 190 -267 258 -550 483 -236 188 -741 489 -1055
629 -33 14 -87 38 -120 53 -367 165 -972 350 -1370 420 -16 2 -55 9 -85 15
-30 5 -71 12 -90 15 -19 3 -46 7 -60 10 -14 3 -45 7 -70 10 -67 8 -132 16
-160 20 -14 2 -61 7 -105 11 -44 4 -96 8 -115 11 -45 5 -746 13 -751 9z"/>
<path d="M9957 13584 c-1 -1 -132 -5 -292 -8 -159 -4 -312 -8 -340 -10 -27 -2
-104 -7 -170 -11 -66 -3 -136 -8 -155 -10 -31 -3 -124 -10 -255 -20 -44 -4
-154 -14 -200 -20 -16 -2 -57 -6 -90 -10 -33 -3 -71 -8 -85 -10 -14 -2 -50 -7
-80 -10 -30 -4 -66 -8 -80 -10 -14 -2 -50 -7 -80 -10 -30 -4 -62 -9 -71 -10
-9 -2 -40 -6 -70 -10 -30 -3 -61 -8 -69 -10 -8 -2 -35 -7 -60 -10 -25 -3 -57
-8 -72 -11 -16 -2 -43 -6 -60 -9 -18 -3 -69 -12 -113 -20 -44 -8 -98 -17 -120
-20 -22 -4 -47 -8 -55 -10 -8 -2 -31 -7 -50 -10 -39 -6 -285 -56 -395 -80 -38
-8 -79 -17 -90 -19 -172 -34 -716 -178 -1005 -266 -74 -22 -142 -42 -150 -45
-34 -9 -363 -120 -480 -162 -298 -106 -742 -284 -944 -377 -43 -20 -79 -36
-81 -36 -14 0 -584 -279 -710 -348 -164 -90 -178 -114 -299 -522 -52 -174
-147 -546 -162 -630 -3 -14 -9 -41 -14 -60 -15 -60 -76 -366 -86 -435 -2 -16
-6 -41 -9 -55 -7 -34 -23 -135 -31 -195 -3 -27 -8 -57 -9 -65 -2 -9 -6 -43
-10 -75 -4 -33 -9 -67 -10 -75 -2 -8 -6 -46 -10 -85 -4 -38 -9 -77 -10 -86 -2
-9 -6 -56 -10 -105 -4 -48 -9 -100 -10 -114 -2 -14 -6 -65 -10 -115 -3 -49 -8
-115 -10 -145 -26 -341 -26 -964 0 -1315 7 -91 16 -206 20 -245 2 -19 7 -62
10 -95 6 -61 12 -106 20 -160 2 -16 7 -53 10 -81 3 -28 7 -60 9 -71 3 -12 8
-43 12 -70 3 -26 8 -57 10 -68 2 -11 9 -47 14 -80 5 -33 12 -71 15 -85 3 -14
7 -36 10 -50 25 -136 62 -300 109 -487 67 -266 86 -335 163 -583 19 -63 39
-131 45 -150 34 -120 263 -792 326 -955 28 -72 109 -270 134 -324 28 -62 146
-312 157 -331 4 -8 29 -55 56 -105 189 -353 377 -659 612 -992 132 -188 346
-470 468 -618 18 -22 61 -74 95 -115 279 -336 725 -788 1020 -1034 103 -85
276 -221 356 -278 103 -74 303 -208 311 -208 3 0 17 -8 31 -19 87 -60 407
-219 557 -276 55 -21 109 -41 120 -45 41 -17 125 -42 305 -91 102 -27 223 -61
270 -74 47 -13 126 -33 175 -45 50 -12 97 -23 105 -25 157 -40 621 -120 810
-139 209 -22 740 -29 960 -13 157 11 311 25 360 31 14 2 55 7 92 10 37 4 77 9
90 11 13 2 48 6 78 9 30 3 105 12 165 21 61 8 128 18 150 21 68 9 158 23 195
29 8 1 49 8 90 15 75 12 104 17 148 25 12 3 32 7 45 9 65 12 365 79 452 101
55 14 109 28 121 30 95 21 666 207 749 245 11 5 43 19 70 31 123 54 194 92
350 187 141 86 360 234 385 262 3 3 30 24 60 47 30 23 64 50 75 60 11 10 56
49 100 88 172 150 357 335 539 539 84 95 94 106 129 149 18 22 42 51 55 65 12
15 57 70 100 122 42 52 79 97 82 100 3 3 30 37 60 75 30 39 57 72 60 75 3 3
19 23 36 45 16 22 39 51 51 65 45 53 316 418 386 520 129 190 300 456 361 563
13 23 63 110 110 192 108 188 321 610 414 821 74 168 251 604 259 639 1 6 30
89 63 185 34 96 63 180 64 185 2 6 11 37 21 70 11 33 20 63 21 68 1 4 3 9 4
12 1 3 3 8 4 13 1 4 11 39 23 77 20 65 99 351 108 392 69 304 87 385 105 473
12 58 23 116 25 130 2 14 15 97 30 185 35 211 33 203 40 260 3 28 8 61 10 75
2 14 7 50 10 80 4 30 8 66 10 80 2 14 7 61 11 105 3 44 8 88 10 98 1 9 6 63 9
120 4 56 9 118 10 137 25 241 25 1013 1 1350 -3 36 -8 106 -11 155 -4 50 -8
101 -10 115 -2 14 -7 54 -10 90 -5 70 -12 134 -20 190 -2 19 -7 58 -10 85 -12
96 -65 439 -80 515 -3 14 -8 39 -10 55 -17 97 -63 307 -107 485 -27 113 -51
212 -53 220 -36 149 -174 590 -200 640 -24 46 -89 97 -195 155 -132 71 -552
278 -685 338 -55 25 -129 58 -165 75 -211 97 -554 234 -815 327 -168 60 -556
186 -615 201 -8 2 -73 19 -145 39 -71 20 -141 38 -155 41 -14 3 -34 8 -45 11
-11 4 -22 8 -25 8 -22 5 -127 29 -135 31 -278 68 -545 130 -590 138 -16 3 -66
14 -110 25 -44 11 -93 22 -110 25 -16 3 -64 12 -105 21 -41 8 -86 17 -100 20
-14 3 -36 7 -50 10 -14 3 -38 8 -55 10 -16 3 -37 8 -45 10 -8 2 -31 7 -50 9
-19 3 -60 10 -90 16 -30 6 -71 13 -90 16 -19 2 -55 9 -80 14 -25 5 -63 12 -85
15 -22 3 -51 7 -65 10 -26 4 -291 42 -345 50 -16 2 -57 7 -90 10 -33 4 -72 8
-87 11 -15 2 -49 6 -75 9 -27 2 -73 7 -103 10 -56 5 -101 9 -225 20 -134 12
-161 14 -270 20 -230 13 -267 15 -525 21 -146 3 -287 6 -313 7 -27 1 -49 1
-50 1z m208 -3948 c61 -5 113 -13 205 -30 157 -30 351 -115 487 -212 302 -218
517 -555 567 -890 13 -90 14 -265 1 -339 -42 -247 -157 -464 -351 -664 -126
-128 -139 -152 -139 -251 0 -78 1 -88 34 -257 11 -56 23 -122 26 -145 4 -24
11 -63 16 -88 6 -25 13 -63 15 -85 3 -22 9 -56 14 -75 5 -19 16 -75 24 -125 9
-49 18 -101 21 -115 8 -47 66 -365 70 -395 3 -16 8 -41 10 -55 3 -14 8 -36 10
-50 3 -14 8 -41 11 -60 3 -19 11 -66 19 -105 7 -38 16 -88 19 -110 4 -22 13
-74 21 -115 8 -41 17 -88 20 -105 2 -16 9 -55 15 -85 6 -30 13 -71 16 -90 2
-19 9 -55 14 -80 5 -25 17 -88 25 -140 9 -52 18 -106 21 -120 3 -14 14 -74 25
-135 11 -60 22 -117 24 -125 5 -23 19 -143 18 -157 0 -7 -1 -17 -2 -21 0 -5
-642 -9 -1424 -9 l-1424 0 8 41 c4 23 10 61 13 86 3 25 8 54 10 65 2 11 9 55
16 98 14 97 18 119 30 182 5 28 11 64 14 80 2 17 16 98 31 180 15 83 29 159
30 170 2 11 13 67 24 125 11 58 22 119 24 135 5 28 28 154 62 335 20 104 23
126 35 199 6 36 12 67 14 70 2 3 7 28 10 55 4 27 9 52 11 55 1 3 6 24 9 46 4
22 9 54 11 70 3 17 9 50 15 75 5 25 19 97 30 160 12 63 30 160 40 215 11 55
21 111 24 125 2 14 11 63 21 110 9 47 19 105 22 130 3 25 6 47 6 50 0 3 -3 24
-7 47 -9 51 -27 75 -151 205 -55 57 -124 139 -153 181 -81 117 -156 277 -177
377 -2 14 -9 48 -15 75 -13 60 -17 228 -7 307 44 360 258 724 550 932 151 108
403 208 582 232 28 3 52 8 55 9 3 2 52 6 110 10 58 4 106 8 107 9 3 3 100 -2
188 -8z"/>
</g>
</svg>
